<svg height="48" viewBox="0 0 48 48" width="48" xmlns="http://www.w3.org/2000/svg"><path d="m11.64 15.2h.04.04.04.04c1.68-.04 3-.6 4-1.72 2.2-2.48 1.84-6.72 1.8-7.12-.24-4.88-3.8-6.04-5.88-5.96-2.12-.08-5.68 1.12-5.88 5.96-.04.4-.4 4.64 1.8 7.12.96 1.12 2.32 1.68 4 1.72zm-4.32-8.72v-.04c.2-4.48 3.68-4.6 4.36-4.56h.04c.68-.04 4.16.08 4.36 4.56v.04c0 .04.4 3.96-1.44 6-.72.8-1.68 1.2-2.96 1.24 0 0 0 0-.04 0s0 0-.04 0c-1.28 0-2.24-.4-2.96-1.24-1.72-2.04-1.32-5.96-1.32-6zm16.16 15.8c0 .36 0 1.8-.28 2.56-.12.28-.4.48-.68.48-.08 0-.2 0-.28-.04-.4-.16-.56-.6-.44-.96.16-.36.2-1.4.16-2 0-.04 0-.04 0-.08.08-1.08 0-2.92-1.52-3.28-2.84-.72-5.16-2.32-5.24-2.4-.32-.24-.4-.72-.2-1.04.24-.32.72-.44 1.04-.2.04 0 2.16 1.52 4.76 2.16 1.88.48 2.84 2.24 2.68 4.8zm-15-6.76c.24.32.16.8-.2 1.04-.08.08-2.4 1.68-5.24 2.4-1.48.36-1.6 2.24-1.52 3.28v.08c0 .6.04 1.64.2 2 .16.4-.04.84-.44.96-.08.04-.2.04-.28.04-.28 0-.6-.16-.68-.48-.28-.72-.28-2.2-.28-2.56-.16-2.6.8-4.36 2.64-4.8 2.6-.64 4.72-2.16 4.76-2.16.32-.24.8-.16 1.04.2zm5.12.2c-.4 0-.76.32-.76.76 0 .32-.12.6-.36.8-.04.04-.08.08-.12.12-.16.12-.36.2-.6.2-.6 0-1.08-.48-1.08-1.08 0-.4-.32-.76-.76-.76s-.76.32-.76.76c0 .6.2 1.16.56 1.6l-.56 12.8c0 .24.08.44.24.6l1.76 1.6c.16.12.32.2.52.2s.36-.08.52-.2l1.8-1.6c.16-.16.24-.36.24-.6l-.56-12.64c.44-.44.68-1.08.68-1.72 0-.52-.36-.84-.76-.84zm-1.88 15.76-1-.88.52-11.6c.16.04.36.04.56.04.16 0 .28 0 .44-.04l.52 11.56zm20.24-9.48c-.04.4-.36.72-.76.72h-.04c-.4-.04-.72-.36-.72-.8.04-.56.04-2.32-.88-2.64-4.96-1.52-4.56-4.16-4.48-4.52v-.04c.08-.32.4-.56.76-.56.4 0 1.36-.04 2.16-.36-.52-.6-.96-1.64-.8-3.44.2-1.96-.08-3.48-.72-4.12-.32-.32-.68-.44-1.2-.36-.24.04-.48-.08-.64-.28-.08-.08-.76-.8-2.24-.24h-.04c-.64.24-2.08.8-2 4.32.04 1.96-.24 3.32-.92 4.16.44.2 1.16.4 2.2.36.4 0 .76.32.76.76 0 .4-.32.76-.76.76-.04 0-.04 0-.08 0-2.96 0-3.96-1.32-4.04-1.48-.16-.24-.16-.52-.04-.76s.32-.36.6-.4c.08-.04.84-.48.8-3.36-.12-4.6 2.2-5.48 2.96-5.76h.04c1.88-.72 3.08-.04 3.64.4.8 0 1.52.28 2.04.84 1.28 1.28 1.32 3.6 1.16 5.36-.2 2.12.68 2.56.8 2.64.28.04.44.24.52.52s0 .56-.2.72c-.88.92-2.28 1.2-3.2 1.28.28.64 1.16 1.52 3.36 2.2 1.4.4 2.08 1.84 1.96 4.08z" transform="translate(8 7)"/></svg>