<svg height="48" viewBox="0 0 48 48" width="48" xmlns="http://www.w3.org/2000/svg"><g fill-rule="evenodd" transform="translate(8 8)"><path d="m30.1344401 2.63444013h-2.6057942v-2.3011068h-1.3333334v2.3011068h-2.9957682v-2.3011068h-1.3333333v2.3011068h-11.7320964v-2.3011068h-1.33333333v2.3011068h-2.99609374v-2.3011068h-1.33333333v2.3011068h-2.60579433c-1.0286458 0-1.86555987.78483074-1.86555987 1.74934894v25.53320313c0 .9648437.83691407 1.7496745 1.86555987 1.7496745h28.26888023c1.0286458 0 1.8655599-.7848308 1.8655599-1.7496745v-25.53320313c0-.9645182-.8369141-1.74934894-1.8655599-1.74934894zm-28.26888023 1.33333334h2.60579426v2.30078126h1.33333334v-2.30078126h2.99609373v2.30078126h1.3333333v-2.30078126h11.7320964v2.30078126h1.3333333v-2.30078126h2.9957682v2.30078126h1.3333333v-2.30078126h2.6057943c.2884115 0 .5322267.19042966.5322267.4160156v3.92805986h-29.33333337v-3.92805986c0-.22558594.24381514-.4160156.53222654-.4160156zm28.26888023 26.36555983h-28.26888023c-.2884114 0-.53222654-.1907552-.53222654-.4163411v-20.27180993h29.33333337v20.27180983c0 .225586-.2438152.4163412-.5322266.4163412z" fill-rule="nonzero"/><path d="m14.924479 12.459961h2.151042v1.333333h-2.151042z"/><path d="m20.302409 12.459961h2.151367v1.333333h-2.151367z"/><path d="m25.680664 12.459961h2.151042v1.333333h-2.151042z"/><path d="m4.168294 17.005208h2.151042v1.333333h-2.151042z"/><path d="m9.546224 17.005208h2.151367v1.333333h-2.151367z"/><path d="m14.924479 17.005208h2.151042v1.333333h-2.151042z"/><path d="m20.302409 17.005208h2.151367v1.333333h-2.151367z"/><path d="m25.680664 17.005208h2.151042v1.333333h-2.151042z"/><path d="m4.168294 21.55013h2.151042v1.333333h-2.151042z"/><path d="m9.546224 21.55013h2.151367v1.333333h-2.151367z"/><path d="m14.924479 21.55013h2.151042v1.333333h-2.151042z"/><path d="m20.302409 21.55013h2.151367v1.333333h-2.151367z"/><path d="m25.680664 21.55013h2.151042v1.333333h-2.151042z"/><path d="m4.168294 26.095378h2.151042v1.333333h-2.151042z"/><path d="m9.546224 26.095378h2.151367v1.333333h-2.151367z"/></g></svg>