<svg height="48" viewBox="0 0 48 48" width="48" xmlns="http://www.w3.org/2000/svg" style="fill: #fff;"><g fill-rule="evenodd" transform="translate(3)"><path d="m29.664 33.542c-4.078 0-7.396-3.318-7.396-7.396s3.318-7.396 7.396-7.396 7.396 3.318 7.396 7.396-3.318 7.396-7.396 7.396zm0-12.192c-2.644 0-4.794 2.152-4.794 4.796s2.15 4.796 4.794 4.796 4.794-2.152 4.794-4.796-2.15-4.796-4.794-4.796z" fill-rule="nonzero"/><path d="m12.418 33.542c-4.078 0-7.396-3.318-7.396-7.396s3.318-7.396 7.396-7.396 7.396 3.318 7.396 7.396-3.318 7.396-7.396 7.396zm0-12.192c-2.644 0-4.794 2.152-4.794 4.796s2.15 4.796 4.794 4.796 4.794-2.152 4.794-4.796-2.15-4.796-4.794-4.796z" fill-rule="nonzero"/><path d="m12.214 47.9c-.718 0-1.3-.582-1.3-1.3v-5.948c0-.718.582-1.3 1.3-1.3s1.3.582 1.3 1.3v5.948c.002.718-.58 1.3-1.3 1.3z"/><path d="m17.964 47.9c-.718 0-1.3-.582-1.3-1.3v-5.948c0-.718.582-1.3 1.3-1.3s1.3.582 1.3 1.3v5.948c.002.718-.58 1.3-1.3 1.3z"/><path d="m23.712 47.9c-.718 0-1.3-.582-1.3-1.3v-5.948c0-.718.582-1.3 1.3-1.3s1.3.582 1.3 1.3v5.948c.002.718-.58 1.3-1.3 1.3z"/><path d="m29.462 47.9c-.718 0-1.3-.582-1.3-1.3v-5.948c0-.718.582-1.3 1.3-1.3s1.3.582 1.3 1.3v5.948c.002.718-.58 1.3-1.3 1.3z"/><path d="m35.376 41.952c-.718 0-1.3-.582-1.3-1.3s.582-1.3 1.3-1.3c2.2 0 3.988-1.79 3.988-3.99v-14.336c0-10.104-8.22-18.326-18.324-18.326-10.106 0-18.326 8.222-18.326 18.326v14.336c0 2.2 1.79 3.99 3.99 3.99.718 0 1.3.582 1.3 1.3s-.582 1.3-1.3 1.3c-3.634 0-6.592-2.956-6.592-6.59v-14.336c.002-11.538 9.39-20.926 20.928-20.926s20.926 9.386 20.926 20.926v14.336c0 3.634-2.956 6.59-6.59 6.59z"/><path d="m23.592 37.432h-5.104c-.478 0-.916-.262-1.144-.682-.226-.42-.206-.93.056-1.33l2.554-3.89c.24-.366.648-.586 1.086-.586s.848.22 1.088.586l2.55 3.89c.262.4.284.91.056 1.332-.226.418-.664.68-1.142.68z"/><path d="m35.558 17.682c-4.078 0-7.396-3.318-7.396-7.396 0-.718.582-1.3 1.3-1.3s1.3.582 1.3 1.3c0 2.644 2.15 4.796 4.794 4.796.718 0 1.3.582 1.3 1.3s-.578 1.3-1.298 1.3z"/><path d="m6.322 17.682c-.718 0-1.3-.582-1.3-1.3s.582-1.3 1.3-1.3c2.644 0 4.794-2.152 4.794-4.796 0-.718.582-1.3 1.3-1.3s1.3.582 1.3 1.3c.002 4.078-3.316 7.396-7.394 7.396z"/></g></svg>
